<svg viewBox="0 0 604 604" fill="none" xmlns="http://www.w3.org/2000/svg">
	<circle cx="302" cy="302.001" r="163.727" stroke="#E81C5A" stroke-opacity="0.2" stroke-width="2" />
	<path d="M488.911 302.305C488.911 405.365 405.365 488.912 302.305 488.912C199.245 488.912 115.699 405.365 115.699 302.305C115.699 199.246 199.245 115.699 302.305 115.699C405.365 115.699 488.911 199.246 488.911 302.305Z" stroke="#E81C5A" stroke-opacity="0.18" stroke-width="2" />
	<circle cx="302" cy="302" r="209.485" stroke="#E81C5A" stroke-opacity="0.16" stroke-width="2" />
	<path d="M534.669 302.305C534.669 430.636 430.636 534.669 302.305 534.669C173.974 534.669 69.9414 430.636 69.9414 302.305C69.9414 173.975 173.974 69.9421 302.305 69.9421C430.636 69.9421 534.669 173.975 534.669 302.305Z" stroke="#E81C5A" stroke-opacity="0.14" stroke-width="2" />
	<path d="M557.242 302C557.242 442.966 442.967 557.242 302 557.242C161.034 557.242 46.7576 442.966 46.7576 302C46.7576 161.033 161.034 46.7577 302 46.7577C442.967 46.7577 557.242 161.033 557.242 302Z" stroke="#E81C5A" stroke-opacity="0.12" stroke-width="2" />
	<path d="M580.426 302.306C580.426 455.908 455.907 580.427 302.305 580.427C148.703 580.427 24.1838 455.908 24.1838 302.306C24.1838 148.703 148.703 24.1844 302.305 24.1844C455.907 24.1844 580.426 148.703 580.426 302.306Z" stroke="#E81C5A" stroke-opacity="0.1" stroke-width="2" />
	<circle cx="302" cy="302" r="301" stroke="#E81C5A" stroke-opacity="0.08" stroke-width="2" />
</svg>
