<svg width="48" height="48" viewBox="0 0 48 48" fill="none" xmlns="http://www.w3.org/2000/svg">
<g clip-path="url(#clip0_164_207)">
<path fill-rule="evenodd" clip-rule="evenodd" d="M28.6787 10.0773V6.03109V6.02979H46.1843V10.0786H44.6306C41.0754 10.2842 39.7326 12.8573 36.3758 20.2663L26.4396 41.915H22.6886L22.5884 41.7245L9.98089 17.7259C8.15092 14.2879 6.56973 11.3181 5.01605 10.5206C4.25289 10.195 3.42171 10.0608 2.59485 10.1297H1.7784V6.08347H26.1318V10.1291H25.0914C23.7813 10.1291 22.9118 10.4329 22.5072 11.0319C22.0849 11.6559 22.1406 12.6419 22.6709 13.9619L28.1202 24.8546C29.9005 20.8136 32.8448 14.1138 32.9797 13.7458C33.5833 11.8373 33.0602 11.1845 32.5371 10.8309C31.6583 10.3105 30.6503 10.0492 29.6294 10.0773H28.6787ZM30.0236 8.74794V7.37628H44.8375V8.71979L44.5697 8.73288C40.1791 8.98888 38.6025 12.089 35.1534 19.7049L25.576 40.5686H23.5024L11.1646 17.0833L11.162 17.0783C9.146 13.2957 7.55426 10.309 5.63935 9.32541C4.92766 8.9771 4.14657 8.79508 3.35434 8.79508L3.12452 8.7905V7.428H24.7824L24.785 8.78461L24.5604 8.79836C23.0585 8.89198 21.9932 9.38827 21.3915 10.278C21.0464 10.8082 20.87 11.4304 20.8855 12.0628C20.9109 12.8905 21.0936 13.7057 21.4236 14.4651L28.1968 28.0147L34.2584 14.1626C34.4641 13.5524 34.5751 12.9142 34.5877 12.2704C34.6115 11.7729 34.5064 11.2777 34.2826 10.8328C34.0588 10.3878 33.7239 10.0082 33.3103 9.73069C32.3899 9.14647 31.3337 8.8108 30.2448 8.75645L30.0236 8.74794ZM25.2676 40.0893L34.7167 19.5071C38.1612 11.9051 39.7843 8.70538 44.1697 8.28505H31.3802V8.43498C31.3802 8.43498 35.7099 9.1159 35.9423 12.7824C35.9522 13.506 35.837 14.2259 35.6019 14.9103L35.5855 14.964C35.3937 15.4812 28.828 30.252 28.828 30.252L20.9882 14.6608C20.2084 12.7287 20.2143 11.1678 20.9967 10.0116C21.3831 9.49751 21.8826 9.07924 22.4565 8.78916C23.0304 8.49908 23.6634 8.34496 24.3064 8.33873V8.33677H5.15224V8.60521C6.39935 9.04778 7.56147 9.70059 8.58826 10.5354C10.1171 11.9345 11.4992 14.5181 13.1655 17.6425L24.9566 40.0893H25.2676Z" fill="white"/>
<path d="M44.1697 8.28516H31.3801V8.43509C31.3801 8.43509 35.7092 9.11667 35.9423 12.7825C35.9522 13.5061 35.837 14.226 35.6018 14.9104L35.5855 14.9641C35.393 15.4813 28.828 30.2521 28.828 30.2521L20.9882 14.6616C20.2084 12.7295 20.2143 11.1686 20.9967 10.0123C21.383 9.49816 21.8824 9.07982 22.4564 8.78972C23.0303 8.49963 23.6633 8.34558 24.3064 8.3395V8.33753H5.15222V8.60597C6.39926 9.04869 7.56136 9.70149 8.58825 10.5361C10.117 11.9353 11.4992 14.5182 13.1655 17.6426L24.9566 40.0901H25.2676L34.7167 19.5079C38.1612 11.9058 39.7836 8.70549 44.1697 8.28516Z" fill="#E81C5A"/>
</g>
<defs>
<clipPath id="clip0_164_207">
<rect width="44.6471" height="36" fill="white" transform="translate(1.67645 6)"/>
</clipPath>
</defs>
</svg>
